<?xml version="1.0" encoding="utf-8"?>
<!-- Generator: Adobe Illustrator 22.0.1, SVG Export Plug-In . SVG Version: 6.00 Build 0)  -->
<svg version="1.1" id="Layer_1" xmlns="http://www.w3.org/2000/svg" xmlns:xlink="http://www.w3.org/1999/xlink" x="0px" y="0px"
	 viewBox="0 0 1366 768" style="enable-background:new 0 0 1366 768;" xml:space="preserve">
<style type="text/css">
	.st0{fill:#FFFFFF;}
	.st1{fill:none;stroke:#000000;stroke-width:3;stroke-miterlimit:10;}
	.st2{font-family:'MyriadPro-Regular';}
	.st3{font-size:37.1645px;}
	.st4{font-size:21px;}
	.st5{font-size:16.4886px;}
	.st6{fill:none;stroke:#000000;stroke-miterlimit:10;}
	.st7{font-size:14.9803px;}
	.st8{font-size:14.8889px;}
	.st9{font-size:12.94px;}
	.st10{fill:none;stroke:#000000;stroke-width:2;stroke-miterlimit:10;}
	.st11{fill:none;stroke:#000000;stroke-width:6;stroke-miterlimit:10;}
	.st12{fill:none;stroke:#000000;stroke-width:4;stroke-miterlimit:10;}
	.st13{font-size:16.8764px;}
	.st14{font-size:22.0164px;}
	.st15{fill:#828282;}
	.st16{font-size:17.0775px;}
	.st17{fill:#EDEDED;}
	.st18{fill:#262626;}
	.st19{font-size:36px;}
	.st20{font-size:24px;}
	.st21{fill:#E5E5E5;}
	.st22{fill:#2D2D2D;}
</style>
<rect x="684" class="st0" width="683" height="768"/>
<rect class="st0" width="683" height="768"/>
<g>
	<line class="st1" x1="683.5" y1="768" x2="683.5" y2="-0.5"/>
</g>
<g>
	<rect x="23.5" y="112.5" class="st0" width="310.5" height="98"/>
	<path d="M333.5,113v97H24v-97H333.5 M334.5,112H23v99h311.5V112L334.5,112z"/>
</g>
<text transform="matrix(1 0 0 1 241.8833 46.4341)" class="st2 st3">Appointments</text>
<text transform="matrix(1 0 0 1 31.8081 153.73)" class="st2 st4">12:30</text>
<text transform="matrix(1 0 0 1 31.8081 199.73)" class="st2 st4">13:10</text>
<text transform="matrix(1 0 0 1 39.4438 133.623)" class="st2 st5">Start</text>
<text transform="matrix(1 0 0 1 42.354 180.623)" class="st2 st5">End</text>
<text transform="matrix(1 0 0 1 98.4771 136.0337)" class="st2 st4">Arthur Granacher</text>
<line class="st6" x1="90" y1="211" x2="90" y2="112"/>
<text transform="matrix(1 0 0 1 98.1538 170.5391)" class="st2 st7">Doctor: John Ayad (jayad1)</text>
<text transform="matrix(1 0 0 1 98.0776 153.1836)" class="st2 st8">Remedial | Appointment 1 of 3</text>
<g>
	<rect x="99.5" y="180.5" class="st0" width="73" height="22"/>
	<path d="M172,181v21h-72v-21H172 M173,180H99v23h74V180L173,180z"/>
</g>
<text transform="matrix(1 0 0 1 117.0073 195.8311)" class="st2 st9">Details</text>
<g>
	<rect x="181.5" y="180.5" class="st0" width="90" height="22"/>
	<path d="M271,181v21h-89v-21H271 M272,180h-91v23h91V180L272,180z"/>
</g>
<text transform="matrix(1 0 0 1 196.313 195.8311)" class="st2 st9">Patient info</text>
<g>
	<rect x="310.5" y="112.5" class="st0" width="24" height="24"/>
	<path d="M334,113v23h-23v-23H334 M335,112h-25v25h25V112L335,112z"/>
</g>
<g>
	<line class="st10" x1="317.5" y1="129.5" x2="328" y2="119"/>
</g>
<g>
	<line class="st10" x1="328" y1="129.5" x2="317.5" y2="119"/>
</g>
<g>
	<g>
		<rect x="347.5" y="112.5" class="st0" width="310.5" height="98"/>
		<path d="M657.5,113v97H348v-97H657.5 M658.5,112H347v99h311.5V112L658.5,112z"/>
	</g>
	<text transform="matrix(1 0 0 1 355.8081 153.73)" class="st2 st4">12:45</text>
	<text transform="matrix(1 0 0 1 355.8081 199.73)" class="st2 st4">13:45</text>
	<text transform="matrix(1 0 0 1 363.4438 133.623)" class="st2 st5">Start</text>
	<text transform="matrix(1 0 0 1 366.354 180.623)" class="st2 st5">End</text>
	<text transform="matrix(1 0 0 1 423.4751 136.0337)" class="st2 st4">Nuraldeeeeeen Mag...</text>
	<line class="st6" x1="414" y1="211" x2="414" y2="112"/>
	<text transform="matrix(1 0 0 1 422.1538 170.5391)" class="st2 st7">Doctor: Andreas C. (aconstat...)</text>
	<text transform="matrix(1 0 0 1 422.0776 153.1836)" class="st2 st8">Cleaning | Single appointment</text>
	<g>
		<rect x="423.5" y="180.5" class="st0" width="73" height="22"/>
		<path d="M496,181v21h-72v-21H496 M497,180h-74v23h74V180L497,180z"/>
	</g>
	<text transform="matrix(1 0 0 1 441.0073 195.8311)" class="st2 st9">Details</text>
	<g>
		<rect x="505.5" y="180.5" class="st0" width="90" height="22"/>
		<path d="M595,181v21h-89v-21H595 M596,180h-91v23h91V180L596,180z"/>
	</g>
	<text transform="matrix(1 0 0 1 520.313 195.8311)" class="st2 st9">Patient info</text>
	<g>
		<rect x="634.5" y="112.5" class="st0" width="24" height="24"/>
		<path d="M658,113v23h-23v-23H658 M659,112h-25v25h25V112L659,112z"/>
	</g>
	<g>
		<line class="st10" x1="641.5" y1="129.5" x2="652" y2="119"/>
	</g>
	<g>
		<line class="st10" x1="652" y1="129.5" x2="641.5" y2="119"/>
	</g>
</g>
<g>
	<g>
		<rect x="22.5" y="223.5" class="st0" width="310.5" height="98"/>
		<path d="M332.5,224v97H23v-97H332.5 M333.5,223H22v99h311.5V223L333.5,223z"/>
	</g>
	<text transform="matrix(1 0 0 1 38.4438 244.623)" class="st2 st5">Start</text>
	<text transform="matrix(1 0 0 1 41.354 291.623)" class="st2 st5">End</text>
	<line class="st6" x1="89" y1="322" x2="89" y2="223"/>
	<g>
		<rect x="98.5" y="291.5" class="st0" width="73" height="22"/>
		<path d="M171,292v21H99v-21H171 M172,291H98v23h74V291L172,291z"/>
	</g>
	<text transform="matrix(1 0 0 1 116.0073 306.8311)" class="st2 st9">Details</text>
	<g>
		<rect x="180.5" y="291.5" class="st0" width="90" height="22"/>
		<path d="M270,292v21h-89v-21H270 M271,291h-91v23h91V291L271,291z"/>
	</g>
	<text transform="matrix(1 0 0 1 195.313 306.8311)" class="st2 st9">Patient info</text>
	<g>
		<rect x="309.5" y="223.5" class="st0" width="24" height="24"/>
		<path d="M333,224v23h-23v-23H333 M334,223h-25v25h25V223L334,223z"/>
	</g>
	<g>
		<line class="st10" x1="316.5" y1="240.5" x2="327" y2="230"/>
	</g>
	<g>
		<line class="st10" x1="327" y1="240.5" x2="316.5" y2="230"/>
	</g>
	<line class="st11" x1="99" y1="240" x2="286" y2="240"/>
	<line class="st12" x1="99" y1="258" x2="266" y2="258"/>
	<line class="st12" x1="99" y1="275" x2="266" y2="275"/>
	<rect x="29" y="251" width="51" height="16"/>
	<rect x="29" y="295" width="51" height="16"/>
</g>
<g>
	<g>
		<rect x="347.5" y="223.5" class="st0" width="310.5" height="98"/>
		<path d="M657.5,224v97H348v-97H657.5 M658.5,223H347v99h311.5V223L658.5,223z"/>
	</g>
	<text transform="matrix(1 0 0 1 363.4438 244.623)" class="st2 st5">Start</text>
	<text transform="matrix(1 0 0 1 366.354 291.623)" class="st2 st5">End</text>
	<line class="st6" x1="414" y1="322" x2="414" y2="223"/>
	<g>
		<rect x="423.5" y="291.5" class="st0" width="73" height="22"/>
		<path d="M496,292v21h-72v-21H496 M497,291h-74v23h74V291L497,291z"/>
	</g>
	<text transform="matrix(1 0 0 1 441.0073 306.8311)" class="st2 st9">Details</text>
	<g>
		<rect x="505.5" y="291.5" class="st0" width="90" height="22"/>
		<path d="M595,292v21h-89v-21H595 M596,291h-91v23h91V291L596,291z"/>
	</g>
	<text transform="matrix(1 0 0 1 520.313 306.8311)" class="st2 st9">Patient info</text>
	<g>
		<rect x="634.5" y="223.5" class="st0" width="24" height="24"/>
		<path d="M658,224v23h-23v-23H658 M659,223h-25v25h25V223L659,223z"/>
	</g>
	<g>
		<line class="st10" x1="641.5" y1="240.5" x2="652" y2="230"/>
	</g>
	<g>
		<line class="st10" x1="652" y1="240.5" x2="641.5" y2="230"/>
	</g>
	<line class="st11" x1="424" y1="240" x2="611" y2="240"/>
	<line class="st12" x1="424" y1="258" x2="591" y2="258"/>
	<line class="st12" x1="424" y1="275" x2="591" y2="275"/>
	<rect x="354" y="251" width="51" height="16"/>
	<rect x="354" y="295" width="51" height="16"/>
</g>
<g>
	<g>
		<rect x="22.5" y="334.5" class="st0" width="310.5" height="98"/>
		<path d="M332.5,335v97H23v-97H332.5 M333.5,334H22v99h311.5V334L333.5,334z"/>
	</g>
	<text transform="matrix(1 0 0 1 38.4438 355.623)" class="st2 st5">Start</text>
	<text transform="matrix(1 0 0 1 41.354 402.623)" class="st2 st5">End</text>
	<line class="st6" x1="89" y1="433" x2="89" y2="334"/>
	<g>
		<rect x="98.5" y="402.5" class="st0" width="73" height="22"/>
		<path d="M171,403v21H99v-21H171 M172,402H98v23h74V402L172,402z"/>
	</g>
	<text transform="matrix(1 0 0 1 116.0073 417.8311)" class="st2 st9">Details</text>
	<g>
		<rect x="180.5" y="402.5" class="st0" width="90" height="22"/>
		<path d="M270,403v21h-89v-21H270 M271,402h-91v23h91V402L271,402z"/>
	</g>
	<text transform="matrix(1 0 0 1 195.313 417.8311)" class="st2 st9">Patient info</text>
	<g>
		<rect x="309.5" y="334.5" class="st0" width="24" height="24"/>
		<path d="M333,335v23h-23v-23H333 M334,334h-25v25h25V334L334,334z"/>
	</g>
	<g>
		<line class="st10" x1="316.5" y1="351.5" x2="327" y2="341"/>
	</g>
	<g>
		<line class="st10" x1="327" y1="351.5" x2="316.5" y2="341"/>
	</g>
	<line class="st11" x1="99" y1="351" x2="286" y2="351"/>
	<line class="st12" x1="99" y1="369" x2="266" y2="369"/>
	<line class="st12" x1="99" y1="386" x2="266" y2="386"/>
	<rect x="29" y="362" width="51" height="16"/>
	<rect x="29" y="406" width="51" height="16"/>
</g>
<g>
	<g>
		<rect x="346.5" y="334.5" class="st0" width="310.5" height="98"/>
		<path d="M656.5,335v97H347v-97H656.5 M657.5,334H346v99h311.5V334L657.5,334z"/>
	</g>
	<text transform="matrix(1 0 0 1 362.4438 355.623)" class="st2 st5">Start</text>
	<text transform="matrix(1 0 0 1 365.354 402.623)" class="st2 st5">End</text>
	<line class="st6" x1="413" y1="433" x2="413" y2="334"/>
	<g>
		<rect x="422.5" y="402.5" class="st0" width="73" height="22"/>
		<path d="M495,403v21h-72v-21H495 M496,402h-74v23h74V402L496,402z"/>
	</g>
	<text transform="matrix(1 0 0 1 440.0073 417.8311)" class="st2 st9">Details</text>
	<g>
		<rect x="504.5" y="402.5" class="st0" width="90" height="22"/>
		<path d="M594,403v21h-89v-21H594 M595,402h-91v23h91V402L595,402z"/>
	</g>
	<text transform="matrix(1 0 0 1 519.313 417.8311)" class="st2 st9">Patient info</text>
	<g>
		<rect x="633.5" y="334.5" class="st0" width="24" height="24"/>
		<path d="M657,335v23h-23v-23H657 M658,334h-25v25h25V334L658,334z"/>
	</g>
	<g>
		<line class="st10" x1="640.5" y1="351.5" x2="651" y2="341"/>
	</g>
	<g>
		<line class="st10" x1="651" y1="351.5" x2="640.5" y2="341"/>
	</g>
	<line class="st11" x1="423" y1="351" x2="610" y2="351"/>
	<line class="st12" x1="423" y1="369" x2="590" y2="369"/>
	<line class="st12" x1="423" y1="386" x2="590" y2="386"/>
	<rect x="353" y="362" width="51" height="16"/>
	<rect x="353" y="406" width="51" height="16"/>
</g>
<g>
	<g>
		<rect x="21.5" y="445.5" class="st0" width="310.5" height="98"/>
		<path d="M331.5,446v97H22v-97H331.5 M332.5,445H21v99h311.5V445L332.5,445z"/>
	</g>
	<text transform="matrix(1 0 0 1 37.4438 466.623)" class="st2 st5">Start</text>
	<text transform="matrix(1 0 0 1 40.354 513.623)" class="st2 st5">End</text>
	<line class="st6" x1="88" y1="544" x2="88" y2="445"/>
	<g>
		<rect x="97.5" y="513.5" class="st0" width="73" height="22"/>
		<path d="M170,514v21H98v-21H170 M171,513H97v23h74V513L171,513z"/>
	</g>
	<text transform="matrix(1 0 0 1 115.0073 528.8311)" class="st2 st9">Details</text>
	<g>
		<rect x="179.5" y="513.5" class="st0" width="90" height="22"/>
		<path d="M269,514v21h-89v-21H269 M270,513h-91v23h91V513L270,513z"/>
	</g>
	<text transform="matrix(1 0 0 1 194.313 528.8311)" class="st2 st9">Patient info</text>
	<g>
		<rect x="308.5" y="445.5" class="st0" width="24" height="24"/>
		<path d="M332,446v23h-23v-23H332 M333,445h-25v25h25V445L333,445z"/>
	</g>
	<g>
		<line class="st10" x1="315.5" y1="462.5" x2="326" y2="452"/>
	</g>
	<g>
		<line class="st10" x1="326" y1="462.5" x2="315.5" y2="452"/>
	</g>
	<line class="st11" x1="98" y1="462" x2="285" y2="462"/>
	<line class="st12" x1="98" y1="480" x2="265" y2="480"/>
	<line class="st12" x1="98" y1="497" x2="265" y2="497"/>
	<rect x="28" y="473" width="51" height="16"/>
	<rect x="28" y="517" width="51" height="16"/>
</g>
<g>
	<g>
		<rect x="346.5" y="445.5" class="st0" width="310.5" height="98"/>
		<path d="M656.5,446v97H347v-97H656.5 M657.5,445H346v99h311.5V445L657.5,445z"/>
	</g>
	<text transform="matrix(1 0 0 1 362.4438 466.623)" class="st2 st5">Start</text>
	<text transform="matrix(1 0 0 1 365.354 513.623)" class="st2 st5">End</text>
	<line class="st6" x1="413" y1="544" x2="413" y2="445"/>
	<g>
		<rect x="422.5" y="513.5" class="st0" width="73" height="22"/>
		<path d="M495,514v21h-72v-21H495 M496,513h-74v23h74V513L496,513z"/>
	</g>
	<text transform="matrix(1 0 0 1 440.0073 528.8311)" class="st2 st9">Details</text>
	<g>
		<rect x="504.5" y="513.5" class="st0" width="90" height="22"/>
		<path d="M594,514v21h-89v-21H594 M595,513h-91v23h91V513L595,513z"/>
	</g>
	<text transform="matrix(1 0 0 1 519.313 528.8311)" class="st2 st9">Patient info</text>
	<g>
		<rect x="633.5" y="445.5" class="st0" width="24" height="24"/>
		<path d="M657,446v23h-23v-23H657 M658,445h-25v25h25V445L658,445z"/>
	</g>
	<g>
		<line class="st10" x1="640.5" y1="462.5" x2="651" y2="452"/>
	</g>
	<g>
		<line class="st10" x1="651" y1="462.5" x2="640.5" y2="452"/>
	</g>
	<line class="st11" x1="423" y1="462" x2="610" y2="462"/>
	<line class="st12" x1="423" y1="480" x2="590" y2="480"/>
	<line class="st12" x1="423" y1="497" x2="590" y2="497"/>
	<rect x="353" y="473" width="51" height="16"/>
	<rect x="353" y="517" width="51" height="16"/>
</g>
<g>
	<g>
		<rect x="21.5" y="556.5" class="st0" width="310.5" height="98"/>
		<path d="M331.5,557v97H22v-97H331.5 M332.5,556H21v99h311.5V556L332.5,556z"/>
	</g>
	<text transform="matrix(1 0 0 1 37.4438 577.623)" class="st2 st5">Start</text>
	<text transform="matrix(1 0 0 1 40.354 624.623)" class="st2 st5">End</text>
	<line class="st6" x1="88" y1="655" x2="88" y2="556"/>
	<g>
		<rect x="97.5" y="624.5" class="st0" width="73" height="22"/>
		<path d="M170,625v21H98v-21H170 M171,624H97v23h74V624L171,624z"/>
	</g>
	<text transform="matrix(1 0 0 1 115.0073 639.8311)" class="st2 st9">Details</text>
	<g>
		<rect x="179.5" y="624.5" class="st0" width="90" height="22"/>
		<path d="M269,625v21h-89v-21H269 M270,624h-91v23h91V624L270,624z"/>
	</g>
	<text transform="matrix(1 0 0 1 194.313 639.8311)" class="st2 st9">Patient info</text>
	<g>
		<rect x="308.5" y="556.5" class="st0" width="24" height="24"/>
		<path d="M332,557v23h-23v-23H332 M333,556h-25v25h25V556L333,556z"/>
	</g>
	<g>
		<line class="st10" x1="315.5" y1="573.5" x2="326" y2="563"/>
	</g>
	<g>
		<line class="st10" x1="326" y1="573.5" x2="315.5" y2="563"/>
	</g>
	<line class="st11" x1="98" y1="573" x2="285" y2="573"/>
	<line class="st12" x1="98" y1="591" x2="265" y2="591"/>
	<line class="st12" x1="98" y1="608" x2="265" y2="608"/>
	<rect x="28" y="584" width="51" height="16"/>
	<rect x="28" y="628" width="51" height="16"/>
</g>
<g>
	<g>
		<rect x="345.5" y="556.5" class="st0" width="310.5" height="98"/>
		<path d="M655.5,557v97H346v-97H655.5 M656.5,556H345v99h311.5V556L656.5,556z"/>
	</g>
	<text transform="matrix(1 0 0 1 361.4438 577.623)" class="st2 st5">Start</text>
	<text transform="matrix(1 0 0 1 364.354 624.623)" class="st2 st5">End</text>
	<line class="st6" x1="412" y1="655" x2="412" y2="556"/>
	<g>
		<rect x="421.5" y="624.5" class="st0" width="73" height="22"/>
		<path d="M494,625v21h-72v-21H494 M495,624h-74v23h74V624L495,624z"/>
	</g>
	<text transform="matrix(1 0 0 1 439.0073 639.8311)" class="st2 st9">Details</text>
	<g>
		<rect x="503.5" y="624.5" class="st0" width="90" height="22"/>
		<path d="M593,625v21h-89v-21H593 M594,624h-91v23h91V624L594,624z"/>
	</g>
	<text transform="matrix(1 0 0 1 518.313 639.8311)" class="st2 st9">Patient info</text>
	<g>
		<rect x="632.5" y="556.5" class="st0" width="24" height="24"/>
		<path d="M656,557v23h-23v-23H656 M657,556h-25v25h25V556L657,556z"/>
	</g>
	<g>
		<line class="st10" x1="639.5" y1="573.5" x2="650" y2="563"/>
	</g>
	<g>
		<line class="st10" x1="650" y1="573.5" x2="639.5" y2="563"/>
	</g>
	<line class="st11" x1="422" y1="573" x2="609" y2="573"/>
	<line class="st12" x1="422" y1="591" x2="589" y2="591"/>
	<line class="st12" x1="422" y1="608" x2="589" y2="608"/>
	<rect x="352" y="584" width="51" height="16"/>
	<rect x="352" y="628" width="51" height="16"/>
</g>
<g>
	<text transform="matrix(1 0 0 1 20.8544 696.125)" class="st2 st13">Viewing appointments for</text>
	<g>
		<text transform="matrix(1 0 0 1 61.5448 729.6338)" class="st2 st14">18/11/2017</text>
		<rect x="56.5" y="706.5" class="st6" width="116" height="32"/>
	</g>
	<g>
		<g>
			<rect x="23.5" y="706.5" class="st0" width="26" height="32"/>
			<path d="M49,707v31H24v-31H49 M50,706H23v33h27V706L50,706z"/>
		</g>
		<g>
			<polygon points="31,722.5 42,730 42,715 			"/>
		</g>
	</g>
	<g>
		<g>
			<rect x="178.5" y="706.5" class="st0" width="26" height="32"/>
			<path d="M204,707v31h-25v-31H204 M205,706h-27v33h27V706L205,706z"/>
		</g>
		<g>
			<polygon points="197,722.5 186,730 186,715 			"/>
		</g>
	</g>
</g>
<g>
	<g>
		<path class="st0" d="M209,98.5c-6.3,0-11.5-5.2-11.5-11.5v-5c0-6.3,5.2-11.5,11.5-11.5h189c6.3,0,11.5,5.2,11.5,11.5v5
			c0,6.3-5.2,11.5-11.5,11.5H209z"/>
		<path d="M398,71c6.1,0,11,4.9,11,11v5c0,6.1-4.9,11-11,11H209c-6.1,0-11-4.9-11-11v-5c0-6.1,4.9-11,11-11H398 M398,70H209
			c-6.6,0-12,5.4-12,12v5c0,6.6,5.4,12,12,12h189c6.6,0,12-5.4,12-12v-5C410,75.4,404.6,70,398,70L398,70z"/>
	</g>
	<text transform="matrix(1 0 0 1 217.1787 89.9526)" class="st15 st2 st16">Search by doctor...</text>
</g>
<g>
	<g>
		<path class="st0" d="M431.5,98.5c-7.7,0-14-6.3-14-14s6.3-14,14-14h64c7.7,0,14,6.3,14,14s-6.3,14-14,14H431.5z"/>
		<path d="M495.5,71c7.4,0,13.5,6.1,13.5,13.5c0,7.4-6.1,13.5-13.5,13.5h-64c-7.4,0-13.5-6.1-13.5-13.5c0-7.4,6.1-13.5,13.5-13.5
			H495.5 M495.5,70h-64c-8,0-14.5,6.5-14.5,14.5v0c0,8,6.5,14.5,14.5,14.5h64c8,0,14.5-6.5,14.5-14.5v0C510,76.5,503.5,70,495.5,70
			L495.5,70z"/>
	</g>
	<text transform="matrix(1 0 0 1 431.9824 90.2563)" class="st2 st4">Search</text>
</g>
<g>
	<g>
		<path class="st0" d="M475.5,732.5c-8.8,0-16-7.2-16-16s7.2-16,16-16h163c8.8,0,16,7.2,16,16s-7.2,16-16,16H475.5z"/>
		<path d="M638.5,701c8.5,0,15.5,7,15.5,15.5s-7,15.5-15.5,15.5h-163c-8.5,0-15.5-7-15.5-15.5s7-15.5,15.5-15.5H638.5 M638.5,700
			h-163c-9.1,0-16.5,7.4-16.5,16.5s7.4,16.5,16.5,16.5h163c9.1,0,16.5-7.4,16.5-16.5S647.6,700,638.5,700L638.5,700z"/>
	</g>
	<text transform="matrix(1 0 0 1 478.417 723.6514)" class="st2 st4">New appointment</text>
</g>
<g>
	<rect x="1139.8" y="1.5" class="st17" width="224.7" height="62"/>
	<path d="M1363,3v59h-221.7V3H1363 M1366,0h-227.7v65H1366V0L1366,0z"/>
</g>
<text transform="matrix(1 0 0 1 1165.9404 44.4341)" class="st18 st2 st3">Addresses</text>
<g>
	<rect x="909.5" y="1.5" class="st17" width="230" height="62"/>
	<path d="M1138,3v59H911V3H1138 M1141,0H908v65h233V0L1141,0z"/>
</g>
<text transform="matrix(1 0 0 1 961.5713 44.4341)" class="st18 st2 st3">Patients</text>
<g>
	<rect x="684.5" y="1.5" class="st0" width="224.7" height="62"/>
	<path d="M907.7,3v59H686V3H907.7 M910.7,0H683v65h227.7V0L910.7,0z"/>
</g>
<text transform="matrix(1 0 0 1 734.1069 44.4341)" class="st2 st3">Register</text>
<text transform="matrix(1 0 0 1 866.9922 123.8169)" class="st2 st19">Patient Registration</text>
<text transform="matrix(1 0 0 1 843.0762 244.9043)" class="st2 st20">First name</text>
<g>
	<g>
		<path class="st0" d="M803.5,286.5c-7.7,0-14-6.3-14-14s6.3-14,14-14h184c7.7,0,14,6.3,14,14s-6.3,14-14,14H803.5z"/>
		<path d="M987.5,259c7.4,0,13.5,6.1,13.5,13.5c0,7.4-6.1,13.5-13.5,13.5h-184c-7.4,0-13.5-6.1-13.5-13.5c0-7.4,6.1-13.5,13.5-13.5
			H987.5 M987.5,258h-184c-8,0-14.5,6.5-14.5,14.5v0c0,8,6.5,14.5,14.5,14.5h184c8,0,14.5-6.5,14.5-14.5v0
			C1002,264.5,995.5,258,987.5,258L987.5,258z"/>
	</g>
	<text transform="matrix(1 0 0 1 839.0029 277.9526)" class="st15 st2 st16">Enter first name</text>
</g>
<text transform="matrix(1 0 0 1 1088.2041 242.9043)" class="st2 st20">Last name</text>
<g>
	<g>
		<path class="st0" d="M1047.5,285.5c-7.7,0-14-6.3-14-14s6.3-14,14-14h184c7.7,0,14,6.3,14,14s-6.3,14-14,14H1047.5z"/>
		<path d="M1231.5,258c7.4,0,13.5,6.1,13.5,13.5c0,7.4-6.1,13.5-13.5,13.5h-184c-7.4,0-13.5-6.1-13.5-13.5c0-7.4,6.1-13.5,13.5-13.5
			H1231.5 M1231.5,257h-184c-8,0-14.5,6.5-14.5,14.5v0c0,8,6.5,14.5,14.5,14.5h184c8,0,14.5-6.5,14.5-14.5v0
			C1246,263.5,1239.5,257,1231.5,257L1231.5,257z"/>
	</g>
	<text transform="matrix(1 0 0 1 1084.1304 276.9526)" class="st15 st2 st16">Enter last name</text>
</g>
<text transform="matrix(1 0 0 1 1076.2529 331.9043)" class="st2 st20">Date of birth</text>
<g>
	<text transform="matrix(1 0 0 1 1086.5449 366.6338)" class="st2 st14">05/05/1998</text>
	<rect x="1081.5" y="343.5" class="st6" width="116" height="32"/>
</g>
<text transform="matrix(1 0 0 1 819.2568 332.9043)" class="st2 st20">Phone Number</text>
<g>
	<g>
		<path class="st0" d="M801,375.5c-6.3,0-11.5-5.2-11.5-11.5v-5c0-6.3,5.2-11.5,11.5-11.5h189c6.3,0,11.5,5.2,11.5,11.5v5
			c0,6.3-5.2,11.5-11.5,11.5H801z"/>
		<path d="M990,348c6.1,0,11,4.9,11,11v5c0,6.1-4.9,11-11,11H801c-6.1,0-11-4.9-11-11v-5c0-6.1,4.9-11,11-11H990 M990,347H801
			c-6.6,0-12,5.4-12,12v5c0,6.6,5.4,12,12,12h189c6.6,0,12-5.4,12-12v-5C1002,352.4,996.6,347,990,347L990,347z"/>
	</g>
	<text transform="matrix(1 0 0 1 820.9268 366.9526)" class="st15 st2 st16">Enter phone number</text>
</g>
<text transform="matrix(1 0 0 1 819.7729 424.9043)" class="st2 st20">House Number</text>
<g>
	<g>
		<path class="st0" d="M801,466.5c-6.3,0-11.5-5.2-11.5-11.5v-5c0-6.3,5.2-11.5,11.5-11.5h189c6.3,0,11.5,5.2,11.5,11.5v5
			c0,6.3-5.2,11.5-11.5,11.5H801z"/>
		<path d="M990,439c6.1,0,11,4.9,11,11v5c0,6.1-4.9,11-11,11H801c-6.1,0-11-4.9-11-11v-5c0-6.1,4.9-11,11-11H990 M990,438H801
			c-6.6,0-12,5.4-12,12v5c0,6.6,5.4,12,12,12h189c6.6,0,12-5.4,12-12v-5C1002,443.4,996.6,438,990,438L990,438z"/>
	</g>
	<text transform="matrix(1 0 0 1 810.9023 457.9526)" class="st15 st2 st16">House number or name</text>
</g>
<text transform="matrix(1 0 0 1 1097.9443 424.9043)" class="st2 st20">Postcode</text>
<g>
	<g>
		<path class="st0" d="M1050,467.5c-6.3,0-11.5-5.2-11.5-11.5v-5c0-6.3,5.2-11.5,11.5-11.5h189c6.3,0,11.5,5.2,11.5,11.5v5
			c0,6.3-5.2,11.5-11.5,11.5H1050z"/>
		<path d="M1239,440c6.1,0,11,4.9,11,11v5c0,6.1-4.9,11-11,11h-189c-6.1,0-11-4.9-11-11v-5c0-6.1,4.9-11,11-11H1239 M1239,439h-189
			c-6.6,0-12,5.4-12,12v5c0,6.6,5.4,12,12,12h189c6.6,0,12-5.4,12-12v-5C1251,444.4,1245.6,439,1239,439L1239,439z"/>
	</g>
	<text transform="matrix(1 0 0 1 1090.1719 458.9526)" class="st15 st2 st16">Enter postcode</text>
</g>
<text transform="matrix(1 0 0 1 991.7959 176.9043)" class="st2 st20">Title</text>
<g>
	<g>
		<path class="st0" d="M970.5,216.5c-7.7,0-14-6.3-14-14s6.3-14,14-14h86c7.7,0,14,6.3,14,14s-6.3,14-14,14H970.5z"/>
		<path d="M1056.5,189c7.4,0,13.5,6.1,13.5,13.5c0,7.4-6.1,13.5-13.5,13.5h-86c-7.4,0-13.5-6.1-13.5-13.5c0-7.4,6.1-13.5,13.5-13.5
			H1056.5 M1056.5,188h-86c-8,0-14.5,6.5-14.5,14.5v0c0,8,6.5,14.5,14.5,14.5h86c8,0,14.5-6.5,14.5-14.5v0
			C1071,194.5,1064.5,188,1056.5,188L1056.5,188z"/>
	</g>
	<text transform="matrix(1 0 0 1 980.5889 207.9526)" class="st15 st2 st16">Enter title</text>
</g>
<g>
	<path class="st0" d="M944,538.5c-12.4,0-22.5-10.1-22.5-22.5s10.1-22.5,22.5-22.5h152c12.4,0,22.5,10.1,22.5,22.5
		s-10.1,22.5-22.5,22.5H944z"/>
	<path d="M1096,494c12.1,0,22,9.9,22,22s-9.9,22-22,22H944c-12.1,0-22-9.9-22-22s9.9-22,22-22H1096 M1096,493H944
		c-12.7,0-23,10.3-23,23s10.3,23,23,23h152c12.7,0,23-10.3,23-23S1108.7,493,1096,493L1096,493z"/>
</g>
<text transform="matrix(1 0 0 1 944.6895 523.4873)" class="st2 st20">Search address</text>
<g>
	<rect x="888.5" y="693.5" class="st21" width="255" height="48"/>
	<path d="M1143,694v47H889v-47H1143 M1144,693H888v49h256V693L1144,693z"/>
</g>
<text transform="matrix(1 0 0 1 934.2227 725.7588)" class="st22 st2 st20">Register patient</text>
</svg>
